<?xml version="1.0" encoding="utf-8"?>
<!-- Generator: Adobe Illustrator 16.0.0, SVG Export Plug-In . SVG Version: 6.00 Build 0)  -->
<!DOCTYPE svg PUBLIC "-//W3C//DTD SVG 1.1//EN" "http://www.w3.org/Graphics/SVG/1.1/DTD/svg11.dtd">
<svg version="1.1" id="Layer_1" xmlns="http://www.w3.org/2000/svg" xmlns:xlink="http://www.w3.org/1999/xlink" x="0px" y="0px"
	 width="192.744px" height="114.09px" viewBox="0 0 192.744 114.09" enable-background="new 0 0 192.744 114.09"
	 xml:space="preserve">
<rect x="70.363" y="17.237" fill="#234367" width="14.819" height="14.819"/>
<rect x="70.363" y="34.893" fill="#7EAECC" width="14.819" height="14.819"/>
<rect x="70.363" y="51.289" fill="#DCDDDE" width="14.819" height="14.819"/>
<rect x="70.363" y="68.945" fill="#CADB37" width="14.819" height="14.819"/>
<rect x="88.02" y="17.237" fill="#E1B9A3" width="14.819" height="14.819"/>
<rect x="88.02" y="34.893" fill="#FFE5C1" width="14.819" height="14.819"/>
<rect x="88.02" y="51.289" fill="#64392E" width="14.819" height="14.819"/>
<rect x="88.02" y="68.945" fill="#E9EC9A" width="14.819" height="14.819"/>
<rect x="105.677" y="17.237" fill="#90425C" width="14.818" height="14.819"/>
<rect x="105.677" y="34.893" fill="#A3832A" width="14.818" height="14.819"/>
<rect x="105.677" y="51.289" fill="#DDE89A" width="14.818" height="14.819"/>
<rect x="105.677" y="68.945" fill="#42C7F4" width="14.818" height="14.819"/>
<rect x="123.333" y="17.237" fill="#E3C7A5" width="14.818" height="14.819"/>
<rect x="123.333" y="34.893" fill="#DCAA44" width="14.818" height="14.819"/>
<rect x="123.333" y="51.289" fill="#C74A1A" width="14.818" height="14.819"/>
<rect x="123.333" y="68.945" fill="#4A6A8F" width="14.818" height="14.819"/>
<rect x="140.989" y="34.893" fill="#FFF2BE" width="14.818" height="14.819"/>
<rect x="140.989" y="51.289" fill="#C4151C" width="14.818" height="14.819"/>
<rect x="140.989" y="68.945" fill="#97D5C9" width="14.818" height="14.819"/>
<rect x="158.646" y="51.289" fill="#FFCE71" width="14.818" height="14.819"/>
<rect x="158.646" y="68.945" fill="#B898C7" width="14.818" height="14.819"/>
<rect x="176.302" y="68.945" fill="#D3C8E3" width="14.819" height="14.819"/>
<text transform="matrix(0.9254 0 0 1 1 83.353)" fill="#656666" stroke="#656666" stroke-width="1.2833" stroke-miterlimit="10" font-family="'TimesNewRomanPSMT'" font-size="98.1224">A</text>
</svg>
